<svg width="160" height="181" viewBox="0 0 160 181" fill="none" xmlns="http://www.w3.org/2000/svg">
<rect x="0.27832" y="0.188477" width="159.303" height="159.303" rx="10" fill="#C4C4C4"/>
<circle cx="79.9302" cy="55.4409" r="28.5376" fill="#E8E6E6"/>
<path d="M36.4844 137.483C36.4844 131.774 37.6082 126.121 39.7915 120.847C41.9748 115.573 45.175 110.78 49.2092 106.743C53.2435 102.706 58.0329 99.5043 63.3039 97.3196C68.5749 95.1349 74.2244 94.0104 79.9297 94.0104C85.635 94.0104 91.2845 95.1349 96.5555 97.3196C101.827 99.5043 106.616 102.706 110.65 106.743C114.684 110.78 117.885 115.573 120.068 120.847C122.251 126.121 123.375 131.774 123.375 137.483L79.9297 137.483L36.4844 137.483Z" fill="#E8E6E6"/>
</svg>
