<svg width="353" height="45" viewBox="0 0 353 45" fill="none" xmlns="http://www.w3.org/2000/svg">
<path d="M211.182 5.80481H209.857V44.3607H211.182V5.80481Z" fill="white"/>
<path d="M54.6601 11.4302L57.4044 5.90757C57.8776 5.8053 58.3507 5.8053 59.0132 5.8053C59.6756 5.8053 60.1487 5.8053 60.6219 5.90757L53.8084 18.9982C53.3352 19.1004 52.8621 19.1004 52.1996 19.1004C51.5372 19.1004 51.064 19.1004 50.5909 18.9982L53.0513 14.2937L48.6982 5.90757C49.1714 5.8053 49.6446 5.8053 50.307 5.8053C50.9694 5.8053 51.4426 5.8053 51.9157 5.90757L54.6601 11.4302Z" fill="white"/>
<path d="M72.3567 11.0208V5.90731C73.303 5.70277 74.344 5.70277 75.385 5.90731V18.9979C74.4386 19.2025 73.3977 19.2025 72.3567 18.9979V13.6799H67.3412V18.9979C66.3949 19.2025 65.3539 19.2025 64.313 18.9979V5.90731C65.2593 5.70277 66.3003 5.70277 67.3412 5.90731V11.0208H72.3567Z" fill="white"/>
<path d="M90.7155 18.9979C89.7692 19.2025 88.7283 19.2025 87.6873 18.9979V11.3276L82.0094 18.9979C81.2523 19.1002 80.4952 19.1002 79.6436 18.9979V5.90731C80.5899 5.70277 81.6308 5.70277 82.6718 5.90731V13.5776L88.3497 5.90731C89.1068 5.70277 89.8638 5.70277 90.7155 5.90731V18.9979Z" fill="white"/>
<path d="M95.0678 5.90747H100.273C101.408 5.90747 102.354 6.21428 103.112 6.8279C103.869 7.44153 104.247 8.25969 104.247 9.28239C104.247 10.6119 103.679 11.5323 102.544 12.146C103.679 12.7596 104.436 13.7823 104.436 15.2141C104.436 17.5663 102.828 18.8958 100.273 18.8958H94.9731V5.90747H95.0678ZM98.096 8.5665V11.2255H99.9887C100.746 11.2255 101.313 10.7142 101.313 9.89602C101.313 8.97558 100.84 8.5665 99.9887 8.5665H98.096ZM98.096 13.5778V16.3391H100.178C101.03 16.3391 101.503 15.8277 101.503 14.9073C101.503 13.9868 101.03 13.5778 100.083 13.5778H98.096Z" fill="white"/>
<path d="M111.345 16.3388H116.834C117.023 17.2592 117.023 18.0774 116.834 18.9978H108.412V5.90723H116.834C117.023 6.82766 117.023 7.74809 116.834 8.56626H111.345V11.0207H116.171C116.361 11.9412 116.361 12.8616 116.171 13.6798H111.345V16.3388Z" fill="white"/>
<path d="M120.713 5.90723H125.445C126.77 5.90723 127.905 6.31631 128.757 7.13447C129.609 7.95264 129.987 8.97534 129.987 10.3049C129.987 11.6344 129.514 12.6571 128.757 13.4752C127.905 14.2934 126.864 14.7025 125.445 14.7025H123.647V18.9978C122.701 19.2024 121.66 19.2024 120.619 18.9978V5.90723H120.713ZM123.647 12.0435H125.445C126.297 12.0435 126.959 11.4298 126.959 10.3049C126.959 9.17988 126.297 8.56626 125.445 8.56626H123.647V12.0435Z" fill="white"/>
<path d="M144.088 15.3163C144.182 15.5208 144.277 15.9299 144.182 16.7481C144.088 17.5662 144.088 18.0776 144.088 18.2821C143.047 18.998 141.816 19.3048 140.397 19.3048C138.315 19.3048 136.706 18.6912 135.381 17.3617C134.151 16.0322 133.489 14.3958 133.489 12.4527C133.489 10.5096 134.151 8.87324 135.381 7.54372C136.612 6.21421 138.315 5.60059 140.397 5.60059C141.816 5.60059 143.047 5.9074 144.088 6.62329C144.182 6.82783 144.182 7.33918 144.182 8.15734C144.182 8.97551 144.182 9.38459 144.088 9.58913C142.857 8.77097 141.627 8.36188 140.586 8.36188C139.451 8.36188 138.504 8.77097 137.747 9.48686C136.99 10.2028 136.612 11.2255 136.612 12.555C136.612 13.7822 136.99 14.8049 137.747 15.6231C138.504 16.339 139.451 16.7481 140.586 16.7481C141.722 16.6458 142.857 16.2367 144.088 15.3163Z" fill="white"/>
<path d="M159.512 18.9979C158.566 19.2025 157.525 19.2025 156.484 18.9979V11.3276L150.806 18.9979C150.049 19.1002 149.292 19.1002 148.44 18.9979V5.90731C149.386 5.70277 150.427 5.70277 151.468 5.90731V13.5776L157.146 5.90731C157.903 5.80504 158.66 5.80504 159.512 5.90731V18.9979Z" fill="white"/>
<path d="M172.95 5.90723C173.139 6.82766 173.139 7.74809 172.95 8.56626H169.638V18.9978C168.691 19.2024 167.65 19.2024 166.609 18.9978V8.56626H163.297C163.108 7.64582 163.108 6.72539 163.297 5.90723H172.95Z" fill="white"/>
<path d="M179.764 16.3391H185.253C185.442 17.2595 185.442 18.0776 185.253 18.9981H176.831V5.90747H185.253C185.442 6.8279 185.442 7.74834 185.253 8.5665H179.764V11.021H184.59C184.78 11.9414 184.78 12.8619 184.59 13.68H179.764V16.3391Z" fill="white"/>
<path d="M198.122 5.90747C198.311 6.8279 198.311 7.74834 198.122 8.5665H194.81V18.9981C193.864 19.2026 192.823 19.2026 191.782 18.9981V8.5665H188.47C188.28 7.64607 188.28 6.72563 188.47 5.90747H198.122Z" fill="white"/>
<path d="M64.5969 38.6345C64.7861 38.839 64.7861 39.6572 64.7861 40.8844C64.7861 42.1117 64.6915 42.9299 64.5969 43.2367C62.9881 44.2594 61.0955 44.7707 58.8243 44.7707C55.6068 44.7707 52.9571 43.748 51.0645 41.7026C49.0772 39.6572 48.1309 37.1004 48.1309 34.0323C48.1309 30.9642 49.0772 28.4075 51.0645 26.3621C53.0517 24.3166 55.6068 23.2939 58.8243 23.2939C61.0955 23.2939 62.9881 23.8053 64.5969 24.828C64.6915 25.1348 64.7861 25.953 64.7861 27.1802C64.7861 28.4075 64.6915 29.1234 64.5969 29.4302C62.6096 28.1007 60.8116 27.487 59.1082 27.487C57.3102 27.487 55.8907 28.1007 54.6605 29.3279C53.4303 30.4529 52.8625 32.0892 52.8625 34.0323C52.8625 35.9755 53.4303 37.6118 54.6605 38.839C55.8907 39.964 57.3102 40.5776 59.1082 40.5776C60.8116 40.5776 62.7042 39.8617 64.5969 38.6345Z" fill="white"/>
<path d="M85.89 44.259C84.3759 44.5658 82.7672 44.5658 81.2531 44.259V32.2934L72.3576 44.3613C71.1274 44.5658 69.8972 44.5658 68.667 44.3613V23.8049C70.1811 23.4981 71.7899 23.4981 73.304 23.8049V35.8728L82.1994 23.8049C83.4296 23.6004 84.6598 23.6004 85.89 23.8049V44.259Z" fill="white"/>
<path d="M102.45 31.7818V23.7024C103.965 23.3956 105.573 23.3956 107.087 23.7024V44.2587C105.573 44.5656 103.965 44.5656 102.45 44.2587V35.9748H94.596V44.2587C93.0818 44.5656 91.4731 44.5656 89.959 44.2587V23.8047C91.4731 23.4979 93.0818 23.4979 94.596 23.8047V31.884H102.45V31.7818Z" fill="white"/>
<path d="M115.888 40.0662H124.405C124.595 41.4979 124.595 42.8275 124.405 44.2593H111.157V23.8052H124.405C124.595 25.237 124.595 26.5665 124.405 27.9983H115.888V31.8845H123.459C123.648 33.3163 123.648 34.6458 123.459 36.0776H115.888V40.0662Z" fill="white"/>
<path d="M127.718 23.8052H135.194C137.37 23.8052 139.074 24.4188 140.398 25.7483C141.723 27.0778 142.386 28.7142 142.386 30.7596C142.386 32.805 141.723 34.4413 140.398 35.7708C139.074 36.9981 137.37 37.7139 135.194 37.7139H132.355V44.4638C130.841 44.7706 129.232 44.7706 127.718 44.4638V23.8052ZM132.355 33.3163H135.099C136.519 33.3163 137.465 32.3959 137.465 30.6573C137.465 28.9187 136.424 27.9983 135.099 27.9983H132.355V33.3163Z" fill="white"/>
<path d="M145.697 23.8052H158.188C158.378 25.237 158.378 26.5665 158.188 27.9983H150.334V44.3615C148.82 44.6683 147.211 44.6683 145.697 44.3615V23.8052Z" fill="white"/>
<path d="M178.44 44.259C176.926 44.5658 175.317 44.5658 173.803 44.259V32.2934L164.908 44.3613C163.678 44.5658 162.448 44.5658 161.217 44.3613V23.8049C162.731 23.4981 164.34 23.4981 165.854 23.8049V35.8728L174.75 23.8049C175.98 23.6004 177.21 23.6004 178.44 23.8049V44.259Z" fill="white"/>
<path d="M197.082 23.8052V44.3615C195.568 44.6683 193.96 44.6683 192.445 44.3615V37.4071H190.647L186.484 44.3615C185.821 44.4638 184.97 44.5661 183.929 44.5661C182.888 44.5661 182.131 44.4638 181.374 44.3615L186.011 36.6912C183.739 35.5663 182.414 33.4186 182.414 30.6573C182.414 28.6119 183.077 26.9756 184.307 25.7483C185.632 24.5211 187.335 23.8052 189.417 23.8052H197.082ZM192.351 27.9983H189.417C187.998 27.9983 187.051 28.9187 187.051 30.555C187.051 32.1913 188.092 33.1118 189.417 33.1118H192.351V27.9983Z" fill="white"/>
<path d="M228.878 13.781L236.165 22.1672C235.881 22.2694 235.313 22.2694 234.745 22.2694C234.177 22.2694 233.61 22.2694 233.326 22.1672L226.418 14.1901V22.1672C225.66 22.3717 224.903 22.3717 224.052 22.1672V5.80392C224.903 5.59938 225.66 5.59938 226.418 5.80392V13.2697L233.042 5.80392C233.42 5.70165 233.893 5.70165 234.461 5.70165C235.124 5.70165 235.597 5.70165 235.881 5.80392L228.878 13.781Z" fill="white"/>
<path d="M252.347 22.1677C251.495 22.3723 250.738 22.3723 249.886 22.1677L248.372 18.0769H241.748L240.234 22.1677C239.382 22.3723 238.625 22.3723 237.773 22.1677L244.019 5.80449C244.682 5.70222 245.344 5.70222 246.006 5.80449L252.347 22.1677ZM242.505 15.9293H247.615L245.06 9.17941L242.505 15.9293Z" fill="white"/>
<path d="M270.232 20.0195V24.9285C269.475 25.1331 268.718 25.1331 267.866 24.9285V22.1672H256.321V24.9285C255.564 25.1331 254.807 25.1331 253.956 24.9285V20.0195H255.375C256.416 19.4059 257.078 17.9741 257.268 15.7242L258.214 5.80395H268.34V20.0195H270.232ZM265.974 7.95163H260.391L259.633 15.7242C259.444 17.7696 258.971 19.2014 258.119 20.0195H265.879V7.95163H265.974Z" fill="white"/>
<path d="M272.881 5.80395H278.465C280.168 5.80395 281.588 6.31531 282.534 7.33801C283.575 8.36071 284.048 9.58796 284.048 11.2243C284.048 12.7583 283.575 14.0879 282.534 15.0083C281.493 16.031 280.168 16.5423 278.465 16.5423H275.247V22.1672C274.49 22.3718 273.733 22.3718 272.881 22.1672V5.80395ZM275.342 14.3947H278.559C280.547 14.3947 281.777 13.0652 281.777 11.2243C281.777 9.28115 280.641 8.0539 278.559 8.0539H275.342V14.3947Z" fill="white"/>
<path d="M294.742 5.39502C297.108 5.39502 299.001 6.21318 300.42 7.84951C301.934 9.48584 302.691 11.5312 302.691 13.8835C302.691 16.2357 301.934 18.2811 300.42 19.9174C298.906 21.5537 297.013 22.3719 294.742 22.3719C292.376 22.3719 290.484 21.5537 289.064 19.9174C287.55 18.2811 286.793 16.2357 286.793 13.8835C286.793 11.5312 287.55 9.48584 289.064 7.84951C290.484 6.31545 292.376 5.39502 294.742 5.39502ZM294.742 7.64497C293.133 7.64497 291.808 8.25859 290.768 9.48584C289.727 10.7131 289.159 12.2471 289.159 14.088C289.159 15.9289 289.727 17.4629 290.768 18.6902C291.808 19.9174 293.133 20.4288 294.742 20.4288C296.351 20.4288 297.676 19.8151 298.717 18.6902C299.758 17.4629 300.325 15.9289 300.325 14.088C300.325 12.2471 299.758 10.7131 298.717 9.48584C297.581 8.15632 296.256 7.64497 294.742 7.64497Z" fill="white"/>
<path d="M305.909 5.80395H312.06C313.48 5.80395 314.615 6.21304 315.467 7.0312C316.413 7.84936 316.792 8.7698 316.792 9.99704C316.792 11.7356 315.94 13.0652 314.521 13.6788C316.224 14.2924 317.17 15.7242 317.17 17.565C317.17 20.3263 315.183 22.0649 311.966 22.0649H305.814V5.80395H305.909ZM308.275 7.95163V12.8606H311.966C313.48 12.8606 314.426 11.9402 314.426 10.4061C314.426 8.87207 313.385 7.95163 311.776 7.95163H308.275ZM308.275 14.7015V20.0195H311.966C313.764 20.0195 314.804 18.9968 314.804 17.3605C314.804 15.8265 313.858 14.8037 311.966 14.8037H308.275V14.7015Z" fill="white"/>
<path d="M322.469 11.5316H325.687C327.39 11.5316 328.81 12.043 329.756 13.0657C330.797 14.0884 331.27 15.3157 331.27 16.8497C331.27 18.3838 330.797 19.7133 329.756 20.6337C328.715 21.6564 327.39 22.0655 325.687 22.0655H320.104V5.70223C320.955 5.49769 321.712 5.49769 322.469 5.70223V11.5316ZM322.469 20.0201H325.687C327.674 20.0201 328.904 18.7928 328.904 16.8497C328.904 14.9066 327.769 13.6793 325.687 13.6793H322.469V20.0201ZM332.973 5.8045C333.825 5.59996 334.582 5.59996 335.339 5.8045V22.1678C334.582 22.3723 333.825 22.3723 332.973 22.1678V5.8045Z" fill="white"/>
<path d="M352.183 22.1672C351.426 22.3717 350.669 22.3717 349.817 22.1672V10.0993L341.111 22.1672C340.448 22.2695 339.786 22.2695 339.218 22.1672V5.80393C340.07 5.59938 340.827 5.59938 341.584 5.80393V17.8718L350.385 5.80393C351.047 5.70165 351.615 5.70165 352.278 5.80393V22.1672H352.183ZM349.06 1.50857C349.06 2.01992 349.06 2.32673 348.965 2.53127C348.114 3.24717 346.978 3.65625 345.559 3.65625C344.234 3.65625 343.098 3.24717 342.152 2.53127C342.057 2.32673 342.057 2.01992 342.057 1.50857C342.057 0.997216 342.057 0.690405 342.152 0.588135C344.234 2.01992 346.789 2.01992 348.871 0.588135C349.06 0.690405 349.155 0.997216 349.06 1.50857Z" fill="white"/>
<path d="M223.957 28.099H229.54C231.244 28.099 232.663 28.6104 233.61 29.6331C234.65 30.6558 235.124 31.883 235.124 33.5193C235.124 35.0534 234.65 36.3829 233.61 37.3033C232.569 38.326 231.244 38.8374 229.54 38.8374H226.323V44.4623C225.566 44.6668 224.809 44.6668 223.957 44.4623V28.099ZM226.323 36.6897H229.54C231.528 36.6897 232.758 35.3602 232.758 33.5193C232.758 31.5762 231.622 30.3489 229.54 30.3489H226.323V36.6897Z" fill="white"/>
<path d="M240.707 42.3146H248.656C248.845 43.0305 248.845 43.7464 248.656 44.4622H238.341V28.099H248.656C248.845 28.8149 248.845 29.5308 248.656 30.2467H240.707V35.0534H247.899C247.994 35.7693 247.994 36.4852 247.899 37.2011H240.707V42.3146Z" fill="white"/>
<path d="M262.189 40.0648C262.189 41.4966 261.715 42.7238 260.675 43.542C259.634 44.3601 258.309 44.8715 256.605 44.8715C254.713 44.8715 253.009 44.3601 251.684 43.4397C251.59 43.2352 251.59 42.8261 251.59 42.2125C251.59 41.5988 251.59 41.1898 251.684 40.9852C253.104 42.1102 254.713 42.6215 256.511 42.6215C258.403 42.6215 259.823 41.4966 259.823 39.758C259.823 38.2239 258.877 37.0989 256.984 37.0989H254.429C254.24 36.383 254.24 35.7694 254.429 35.0535H256.889C258.403 35.0535 259.35 33.9286 259.35 32.4968C259.35 30.9627 258.309 29.8377 256.511 29.8377C254.902 29.8377 253.388 30.3491 251.874 31.4741C251.779 31.3718 251.779 30.9627 251.779 30.3491C251.779 29.7355 251.874 29.3264 251.874 29.1218C253.199 28.2014 254.713 27.6901 256.605 27.6901C258.119 27.6901 259.444 28.0991 260.296 28.9173C261.242 29.7355 261.715 30.7582 261.715 32.0877C261.715 33.8263 260.864 35.2581 259.444 35.974C261.242 36.5876 262.189 38.1216 262.189 40.0648Z" fill="white"/>
<path d="M267.393 42.3146H275.342C275.531 43.0305 275.531 43.7464 275.342 44.4622H265.027V28.099H275.342C275.531 28.8149 275.531 29.5308 275.342 30.2467H267.393V35.0534H274.585C274.679 35.7693 274.679 36.4852 274.585 37.2011H267.393V42.3146Z" fill="white"/>
<path d="M278.275 28.099H283.859C285.562 28.099 286.982 28.6104 287.928 29.6331C288.969 30.6558 289.442 31.883 289.442 33.5193C289.442 35.0534 288.969 36.3829 287.928 37.3033C286.887 38.326 285.562 38.8374 283.859 38.8374H280.641V44.4623C279.884 44.6668 279.127 44.6668 278.275 44.4623V28.099ZM280.736 36.6897H283.953C285.941 36.6897 287.171 35.3602 287.171 33.5193C287.171 31.5762 286.035 30.3489 283.953 30.3489H280.736V36.6897Z" fill="white"/>
<path d="M292.661 28.099H298.812C300.231 28.099 301.367 28.5081 302.218 29.3262C303.165 30.1444 303.543 31.0648 303.543 32.2921C303.543 34.0307 302.692 35.3602 301.272 35.9738C302.975 36.5874 303.922 38.0192 303.922 39.8601C303.922 42.6214 301.934 44.36 298.717 44.36H292.566V28.099H292.661ZM295.121 30.2467V35.1557H298.812C300.326 35.1557 301.272 34.2352 301.272 32.7012C301.272 31.1671 300.231 30.2467 298.622 30.2467H295.121ZM295.121 36.9965V42.2123H298.812C300.61 42.2123 301.651 41.1896 301.651 39.5533C301.651 38.0192 300.704 36.9965 298.812 36.9965H295.121Z" fill="white"/>
<path d="M22.0913 28.7523L18.5518 24.9246L22.0913 21.0968V13.4308L11.4629 24.9246L22.0913 36.4183V28.7523Z" fill="white"/>
<path d="M0.814453 5.75391V44.1055H36.2785V5.75391H0.814453ZM31.215 38.6191H5.87793V11.2297H31.2051V38.6191H31.215Z" fill="white"/>
</svg>
