<svg width="282" height="32" viewBox="0 0 282 32" fill="none" xmlns="http://www.w3.org/2000/svg">
<path d="M168.298 3.72632H167.239V31.0056H168.298V3.72632Z" fill="#FF0040"/>
<path d="M43.2312 7.70629L45.4241 3.79892C45.8021 3.72656 46.1802 3.72656 46.7095 3.72656C47.2388 3.72656 47.6169 3.72656 47.9949 3.79892L42.5507 13.0608C42.1726 13.1332 41.7946 13.1332 41.2653 13.1332C40.736 13.1332 40.3579 13.1332 39.9798 13.0608L41.9458 9.73234L38.4675 3.79892C38.8456 3.72656 39.2237 3.72656 39.753 3.72656C40.2823 3.72656 40.6603 3.72656 41.0384 3.79892L43.2312 7.70629Z" fill="#231F20"/>
<path d="M57.3713 7.41666V3.79872C58.1274 3.65401 58.9592 3.65401 59.791 3.79872V13.0606C59.0348 13.2054 58.2031 13.2054 57.3713 13.0606V9.29799H53.3638V13.0606C52.6076 13.2054 51.7758 13.2054 50.9441 13.0606V3.79872C51.7002 3.65401 52.532 3.65401 53.3638 3.79872V7.41666H57.3713Z" fill="#231F20"/>
<path d="M72.0405 13.0606C71.2843 13.2054 70.4526 13.2054 69.6208 13.0606V7.63374L65.084 13.0606C64.479 13.133 63.8741 13.133 63.1936 13.0606V3.79872C63.9497 3.65401 64.7815 3.65401 65.6133 3.79872V9.22563L70.1501 3.79872C70.755 3.65401 71.3599 3.65401 72.0405 3.79872V13.0606Z" fill="#231F20"/>
<path d="M75.5185 3.79895H79.6773C80.5846 3.79895 81.3408 4.01603 81.9457 4.45018C82.5506 4.88433 82.8531 5.4632 82.8531 6.18679C82.8531 7.12745 82.3994 7.77868 81.492 8.21283C82.3994 8.64699 83.0043 9.37057 83.0043 10.3836C83.0043 12.0478 81.7189 12.9885 79.6773 12.9885H75.4429V3.79895H75.5185ZM77.9381 5.68028V7.5616H79.4504C80.0553 7.5616 80.509 7.19981 80.509 6.62094C80.509 5.96971 80.131 5.68028 79.4504 5.68028H77.9381ZM77.9381 9.22586V11.1795H79.6017C80.2822 11.1795 80.6603 10.8177 80.6603 10.1665C80.6603 9.51529 80.2822 9.22586 79.526 9.22586H77.9381Z" fill="#231F20"/>
<path d="M88.5249 11.1794H92.9106C93.0618 11.8306 93.0618 12.4095 92.9106 13.0607H86.1809V3.79883H92.9106C93.0618 4.45006 93.0618 5.10129 92.9106 5.68016H88.5249V7.41676H92.3813C92.5325 8.06799 92.5325 8.71922 92.3813 9.29809H88.5249V11.1794Z" fill="#231F20"/>
<path d="M96.0099 3.79883H99.7907C100.849 3.79883 101.757 4.08826 102.437 4.66713C103.118 5.246 103.42 5.96959 103.42 6.91025C103.42 7.85092 103.042 8.57451 102.437 9.15338C101.757 9.73224 100.925 10.0217 99.7907 10.0217H98.354V13.0607C97.5978 13.2055 96.7661 13.2055 95.9343 13.0607V3.79883H96.0099ZM98.354 8.14035H99.7907C100.471 8.14035 101 7.7062 101 6.91025C101 6.11431 100.471 5.68016 99.7907 5.68016H98.354V8.14035Z" fill="#231F20"/>
<path d="M114.687 10.4559C114.762 10.6006 114.838 10.89 114.762 11.4689C114.687 12.0478 114.687 12.4095 114.687 12.5543C113.855 13.0608 112.872 13.2779 111.738 13.2779C110.074 13.2779 108.789 12.8437 107.73 11.903C106.747 10.9624 106.218 9.80464 106.218 8.42982C106.218 7.05501 106.747 5.89727 107.73 4.9566C108.713 4.01594 110.074 3.58179 111.738 3.58179C112.872 3.58179 113.855 3.79886 114.687 4.30537C114.762 4.45009 114.762 4.81189 114.762 5.39075C114.762 5.96962 114.762 6.25906 114.687 6.40378C113.704 5.82491 112.721 5.53547 111.889 5.53547C110.981 5.53547 110.225 5.82491 109.62 6.33142C109.016 6.83793 108.713 7.56152 108.713 8.50218C108.713 9.37048 109.016 10.0941 109.62 10.6729C110.225 11.1795 110.981 11.4689 111.889 11.4689C112.796 11.3965 113.704 11.1071 114.687 10.4559Z" fill="#231F20"/>
<path d="M127.012 13.0606C126.256 13.2054 125.424 13.2054 124.592 13.0606V7.63374L120.055 13.0606C119.45 13.133 118.845 13.133 118.165 13.0606V3.79872C118.921 3.65401 119.753 3.65401 120.584 3.79872V9.22563L125.121 3.79872C125.726 3.72636 126.331 3.72636 127.012 3.79872V13.0606Z" fill="#231F20"/>
<path d="M137.749 3.79883C137.9 4.45006 137.9 5.10129 137.749 5.68016H135.102V13.0607C134.346 13.2055 133.514 13.2055 132.683 13.0607V5.68016H130.036C129.885 5.02893 129.885 4.3777 130.036 3.79883H137.749Z" fill="#231F20"/>
<path d="M143.194 11.1795H147.579C147.73 11.8308 147.73 12.4096 147.579 13.0609H140.85V3.79895H147.579C147.73 4.45018 147.73 5.10141 147.579 5.68028H143.194V7.41689H147.05C147.201 8.06812 147.201 8.71934 147.05 9.29821H143.194V11.1795Z" fill="#231F20"/>
<path d="M157.862 3.79895C158.013 4.45018 158.013 5.10141 157.862 5.68028H155.216V13.0609C154.46 13.2056 153.628 13.2056 152.796 13.0609V5.68028H150.15C149.998 5.02905 149.998 4.37782 150.15 3.79895H157.862Z" fill="#231F20"/>
<path d="M51.1708 26.954C51.322 27.0987 51.322 27.6776 51.322 28.5459C51.322 29.4142 51.2464 29.9931 51.1708 30.2102C49.8854 30.9338 48.3731 31.2955 46.5583 31.2955C43.9875 31.2955 41.8702 30.572 40.358 29.1248C38.7701 27.6776 38.0139 25.8686 38.0139 23.6979C38.0139 21.5271 38.7701 19.7182 40.358 18.271C41.9459 16.8238 43.9875 16.1002 46.5583 16.1002C48.3731 16.1002 49.8854 16.462 51.1708 17.1856C51.2464 17.4027 51.322 17.9815 51.322 18.8499C51.322 19.7182 51.2464 20.2247 51.1708 20.4417C49.5829 19.5011 48.1462 19.0669 46.7852 19.0669C45.3485 19.0669 44.2143 19.5011 43.2313 20.3694C42.2483 21.1653 41.7946 22.3231 41.7946 23.6979C41.7946 25.0727 42.2483 26.2304 43.2313 27.0987C44.2143 27.8947 45.3485 28.3288 46.7852 28.3288C48.1462 28.3288 49.6585 27.8223 51.1708 26.954Z" fill="#231F20"/>
<path d="M68.1847 30.9335C66.9748 31.1506 65.6894 31.1506 64.4796 30.9335V22.4675L57.3718 31.0059C56.3888 31.1506 55.4058 31.1506 54.4228 31.0059V16.4618C55.6327 16.2447 56.9181 16.2447 58.128 16.4618V25.0001L65.2357 16.4618C66.2187 16.317 67.2017 16.317 68.1847 16.4618V30.9335Z" fill="#231F20"/>
<path d="M81.4169 22.1056V16.3892C82.6267 16.1722 83.9122 16.1722 85.122 16.3892V30.9333C83.9122 31.1504 82.6267 31.1504 81.4169 30.9333V25.0723H75.1409V30.9333C73.9311 31.1504 72.6456 31.1504 71.4358 30.9333V16.4616C72.6456 16.2445 73.9311 16.2445 75.1409 16.4616V22.1779H81.4169V22.1056Z" fill="#231F20"/>
<path d="M92.154 27.9669H98.9593C99.1105 28.98 99.1105 29.9206 98.9593 30.9337H88.3733V16.4619H98.9593C99.1105 17.4749 99.1105 18.4156 98.9593 19.4286H92.154V22.1783H98.2032C98.3544 23.1913 98.3544 24.1319 98.2032 25.145H92.154V27.9669Z" fill="#231F20"/>
<path d="M101.606 16.4619H107.58C109.319 16.4619 110.68 16.8961 111.739 17.8367C112.797 18.7774 113.326 19.9351 113.326 21.3823C113.326 22.8295 112.797 23.9872 111.739 24.9279C110.68 25.7962 109.319 26.3027 107.58 26.3027H105.311V31.0784C104.101 31.2955 102.816 31.2955 101.606 31.0784V16.4619ZM105.311 23.1913H107.504C108.638 23.1913 109.394 22.54 109.394 21.3099C109.394 20.0798 108.563 19.4286 107.504 19.4286H105.311V23.1913Z" fill="#231F20"/>
<path d="M115.972 16.4619H125.954C126.105 17.4749 126.105 18.4156 125.954 19.4286H119.678V31.006C118.468 31.2231 117.182 31.2231 115.972 31.006V16.4619Z" fill="#231F20"/>
<path d="M142.135 30.9335C140.926 31.1506 139.64 31.1506 138.43 30.9335V22.4675L131.322 31.0059C130.34 31.1506 129.357 31.1506 128.374 31.0059V16.4618C129.583 16.2447 130.869 16.2447 132.079 16.4618V25.0001L139.186 16.4618C140.169 16.317 141.152 16.317 142.135 16.4618V30.9335Z" fill="#231F20"/>
<path d="M157.031 16.4619V31.006C155.822 31.2231 154.536 31.2231 153.326 31.006V26.0856H151.89L148.563 31.006C148.033 31.0784 147.353 31.1507 146.521 31.1507C145.689 31.1507 145.084 31.0784 144.479 31.006L148.185 25.5791C146.37 24.7832 145.311 23.2636 145.311 21.3099C145.311 19.8628 145.841 18.705 146.824 17.8367C147.882 16.9684 149.243 16.4619 150.907 16.4619H157.031ZM153.251 19.4286H150.907C149.773 19.4286 149.016 20.0798 149.016 21.2376C149.016 22.3953 149.848 23.0466 150.907 23.0466H153.251V19.4286Z" fill="#231F20"/>
<path d="M182.437 9.36971L188.259 15.3031C188.033 15.3755 187.579 15.3755 187.125 15.3755C186.672 15.3755 186.218 15.3755 185.991 15.3031L180.471 9.65914V15.3031C179.866 15.4478 179.261 15.4478 178.581 15.3031V3.72573C179.261 3.58101 179.866 3.58101 180.471 3.72573V9.00791L185.764 3.72573C186.067 3.65337 186.445 3.65337 186.898 3.65337C187.428 3.65337 187.806 3.65337 188.033 3.72573L182.437 9.36971Z" fill="#231F20"/>
<path d="M201.19 15.3035C200.509 15.4483 199.904 15.4483 199.224 15.3035L198.014 12.4092H192.721L191.511 15.3035C190.83 15.4483 190.225 15.4483 189.545 15.3035L194.535 3.72614C195.065 3.65379 195.594 3.65379 196.123 3.72614L201.19 15.3035ZM193.326 10.8897H197.409L195.367 6.11398L193.326 10.8897Z" fill="#231F20"/>
<path d="M215.481 13.7836V17.2568C214.876 17.4015 214.271 17.4015 213.591 17.2568V15.3031H204.366V17.2568C203.761 17.4015 203.156 17.4015 202.475 17.2568V13.7836H203.61C204.441 13.3494 204.971 12.3364 205.122 10.7445L205.878 3.72571H213.969V13.7836H215.481ZM212.078 5.24524H207.617L207.012 10.7445C206.861 12.1917 206.483 13.2047 205.802 13.7836H212.003V5.24524H212.078Z" fill="#231F20"/>
<path d="M217.598 3.72571H222.059C223.42 3.72571 224.554 4.0875 225.31 4.81109C226.142 5.53468 226.52 6.40298 226.52 7.56072C226.52 8.6461 226.142 9.58677 225.31 10.238C224.479 10.9616 223.42 11.3234 222.059 11.3234H219.488V15.3031C218.883 15.4478 218.278 15.4478 217.598 15.3031V3.72571ZM219.564 9.80384H222.135C223.722 9.80384 224.705 8.86318 224.705 7.56072C224.705 6.1859 223.798 5.3176 222.135 5.3176H219.564V9.80384Z" fill="#231F20"/>
<path d="M235.065 3.4364C236.956 3.4364 238.468 4.01527 239.602 5.17301C240.812 6.33075 241.417 7.77793 241.417 9.44218C241.417 11.1064 240.812 12.5536 239.602 13.7113C238.392 14.8691 236.88 15.448 235.065 15.448C233.175 15.448 231.663 14.8691 230.528 13.7113C229.319 12.5536 228.714 11.1064 228.714 9.44218C228.714 7.77793 229.319 6.33075 230.528 5.17301C231.663 4.08763 233.175 3.4364 235.065 3.4364ZM235.065 5.02829C233.78 5.02829 232.721 5.46245 231.889 6.33075C231.058 7.19906 230.604 8.28444 230.604 9.58689C230.604 10.8894 231.058 11.9747 231.889 12.843C232.721 13.7113 233.78 14.0731 235.065 14.0731C236.351 14.0731 237.409 13.639 238.241 12.843C239.073 11.9747 239.526 10.8894 239.526 9.58689C239.526 8.28444 239.073 7.19906 238.241 6.33075C237.334 5.39009 236.275 5.02829 235.065 5.02829Z" fill="#231F20"/>
<path d="M243.988 3.72571H248.903C250.037 3.72571 250.944 4.01514 251.625 4.59401C252.381 5.17288 252.683 5.82411 252.683 6.69242C252.683 7.92251 252.003 8.86318 250.869 9.29733C252.23 9.73148 252.986 10.7445 252.986 12.047C252.986 14.0006 251.398 15.2307 248.827 15.2307H243.912V3.72571H243.988ZM245.878 5.24524V8.71846H248.827C250.037 8.71846 250.793 8.06723 250.793 6.98185C250.793 5.89647 249.961 5.24524 248.676 5.24524H245.878ZM245.878 10.0209V13.7836H248.827C250.264 13.7836 251.095 13.06 251.095 11.9022C251.095 10.8169 250.339 10.0933 248.827 10.0933H245.878V10.0209Z" fill="#231F20"/>
<path d="M257.22 7.77815H259.791C261.152 7.77815 262.286 8.13995 263.043 8.86353C263.874 9.58712 264.252 10.4554 264.252 11.5408C264.252 12.6262 263.874 13.5669 263.043 14.2181C262.211 14.9417 261.152 15.2311 259.791 15.2311H255.33V3.6537C256.01 3.50899 256.615 3.50899 257.22 3.6537V7.77815ZM257.22 13.7839H259.791C261.379 13.7839 262.362 12.9156 262.362 11.5408C262.362 10.166 261.455 9.29769 259.791 9.29769H257.22V13.7839ZM265.613 3.72606C266.294 3.58135 266.899 3.58135 267.504 3.72606V15.3035C266.899 15.4482 266.294 15.4482 265.613 15.3035V3.72606Z" fill="#231F20"/>
<path d="M280.962 15.3031C280.358 15.4478 279.753 15.4478 279.072 15.3031V6.76476L272.116 15.3031C271.586 15.3755 271.057 15.3755 270.603 15.3031V3.7257C271.284 3.58098 271.889 3.58098 272.494 3.7257V12.264L279.526 3.7257C280.055 3.65334 280.509 3.65334 281.038 3.7257V15.3031H280.962ZM278.467 0.686629C278.467 1.04842 278.467 1.2655 278.392 1.41022C277.711 1.91673 276.804 2.20616 275.669 2.20616C274.611 2.20616 273.703 1.91673 272.947 1.41022C272.872 1.2655 272.872 1.04842 272.872 0.686629C272.872 0.324835 272.872 0.107759 272.947 0.0354004C274.611 1.04842 276.652 1.04842 278.316 0.0354004C278.467 0.107759 278.543 0.324835 278.467 0.686629Z" fill="#231F20"/>
<path d="M178.505 19.5H182.967C184.328 19.5 185.462 19.8618 186.218 20.5854C187.05 21.309 187.428 22.1773 187.428 23.335C187.428 24.4204 187.05 25.3611 186.218 26.0123C185.386 26.7359 184.328 27.0977 182.967 27.0977H180.396V31.0774C179.791 31.2221 179.186 31.2221 178.505 31.0774V19.5ZM180.396 25.5781H182.967C184.555 25.5781 185.538 24.6375 185.538 23.335C185.538 21.9602 184.63 21.0919 182.967 21.0919H180.396V25.5781Z" fill="#231F20"/>
<path d="M191.889 29.5579H198.24C198.392 30.0644 198.392 30.5709 198.24 31.0774H189.999V19.5H198.24C198.392 20.0065 198.392 20.513 198.24 21.0195H191.889V24.4204H197.636C197.711 24.9269 197.711 25.4334 197.636 25.9399H191.889V29.5579Z" fill="#231F20"/>
<path d="M209.054 27.9661C209.054 28.9791 208.675 29.8474 207.844 30.4263C207.012 31.0052 205.953 31.367 204.592 31.367C203.08 31.367 201.719 31.0052 200.66 30.3539C200.585 30.2092 200.585 29.9198 200.585 29.4856C200.585 29.0515 200.585 28.762 200.66 28.6173C201.795 29.4133 203.08 29.7751 204.517 29.7751C206.029 29.7751 207.163 28.9791 207.163 27.749C207.163 26.6636 206.407 25.8677 204.895 25.8677H202.853C202.702 25.3612 202.702 24.927 202.853 24.4205H204.819C206.029 24.4205 206.785 23.6246 206.785 22.6116C206.785 21.5262 205.953 20.7302 204.517 20.7302C203.231 20.7302 202.021 21.092 200.812 21.888C200.736 21.8156 200.736 21.5262 200.736 21.092C200.736 20.6579 200.812 20.3684 200.812 20.2237C201.87 19.5725 203.08 19.2107 204.592 19.2107C205.802 19.2107 206.861 19.5001 207.541 20.079C208.297 20.6579 208.675 21.3815 208.675 22.3221C208.675 23.5522 207.995 24.5652 206.861 25.0717C208.297 25.5059 209.054 26.5913 209.054 27.9661Z" fill="#231F20"/>
<path d="M213.212 29.5579H219.564C219.715 30.0644 219.715 30.5709 219.564 31.0774H211.322V19.5H219.564C219.715 20.0065 219.715 20.513 219.564 21.0195H213.212V24.4204H218.959C219.034 24.9269 219.034 25.4334 218.959 25.9399H213.212V29.5579Z" fill="#231F20"/>
<path d="M221.908 19.5H226.369C227.73 19.5 228.864 19.8618 229.62 20.5854C230.452 21.309 230.83 22.1773 230.83 23.335C230.83 24.4204 230.452 25.3611 229.62 26.0123C228.789 26.7359 227.73 27.0977 226.369 27.0977H223.798V31.0774C223.193 31.2221 222.588 31.2221 221.908 31.0774V19.5ZM223.874 25.5781H226.445C228.033 25.5781 229.015 24.6375 229.015 23.335C229.015 21.9602 228.108 21.0919 226.445 21.0919H223.874V25.5781Z" fill="#231F20"/>
<path d="M233.402 19.5H238.317C239.451 19.5 240.358 19.7894 241.039 20.3683C241.795 20.9472 242.097 21.5984 242.097 22.4667C242.097 23.6968 241.417 24.6375 240.283 25.0716C241.644 25.5058 242.4 26.5188 242.4 27.8213C242.4 29.7749 240.812 31.005 238.241 31.005H233.326V19.5H233.402ZM235.368 21.0195V24.4928H238.317C239.527 24.4928 240.283 23.8415 240.283 22.7561C240.283 21.6708 239.451 21.0195 238.165 21.0195H235.368ZM235.368 25.7952V29.4855H238.317C239.753 29.4855 240.585 28.7619 240.585 27.6042C240.585 26.5188 239.829 25.7952 238.317 25.7952H235.368Z" fill="#231F20"/>
<path d="M17.2068 19.962L14.3786 17.2538L17.2068 14.5456V9.1217L8.71436 17.2538L17.2068 25.386V19.962Z" fill="#FF0040"/>
<path d="M0.206055 3.69019V30.8249H28.543V3.69019H0.206055ZM24.4971 26.9431H4.25195V7.56442H24.4893V26.9431H24.4971Z" fill="#FF0040"/>
</svg>
